<svg xmlns="http://www.w3.org/2000/svg" xmlns:xlink="http://www.w3.org/1999/xlink" viewBox="0 0 390.85 369.05"><defs><style>.cls-1{fill:url(#未命名的渐变_18);}</style><linearGradient id="未命名的渐变_18" x1="195.43" y1="369.05" x2="195.43" gradientUnits="userSpaceOnUse"><stop offset="0" stop-color="#009f8d"/><stop offset="0" stop-color="#2f268a"/><stop offset="0.06" stop-color="#4c258a"/><stop offset="0.14" stop-color="#6d2489"/><stop offset="0.23" stop-color="#872389"/><stop offset="0.31" stop-color="#928"/><stop offset="0.4" stop-color="#a42288"/><stop offset="0.51" stop-color="#a82288"/><stop offset="1" stop-color="#d80c18"/></linearGradient></defs><title>Ryokai Favicon</title><g id="图层_2" data-name="图层 2"><g id="图层_1-2" data-name="图层 1"><path class="cls-1" d="M333.76,88.49q0,41-28.54,64.74t-87.84,28.06l98.81,138.12a97.68,97.68,0,0,0,28.55,25.9q17.55,10.81,35.13,10.79h11v12.95H298.63L169.08,185.6H98.81V319.41q0,21.6,8.78,28.06,11,8.64,28.55,8.63H155.9v12.95H0V356.1H19.76q19.77,0,28.55-8.63c5.83-4.32,8.78-13.66,8.78-28.06V49.64c0-11.5-3-20.84-8.78-28.06C43.92,15.85,34.38,13,19.76,13H0V0H208.6Q272.26,0,303,25.9T333.76,88.49ZM98.81,172.65h74.66q63.66,0,87.83-23.74,26.35-23.72,26.35-60.42,0-34.5-24.15-56.12-22-19.42-68.07-19.42H136.14c-11.73,0-21.24,2.9-28.55,8.63q-8.79,8.66-8.78,28.06Z"/></g></g></svg>