<svg xmlns="http://www.w3.org/2000/svg" xmlns:xlink="http://www.w3.org/1999/xlink" viewBox="0 0 1312.21 461.1"><defs><style>.cls-1{fill:url(#未命名的渐变_93);}.cls-2{fill:url(#未命名的渐变_93-2);}.cls-3{fill:url(#未命名的渐变_93-3);}.cls-4{fill:url(#未命名的渐变_93-4);}.cls-5{fill:url(#未命名的渐变_93-5);}.cls-6{fill:url(#未命名的渐变_93-6);}</style><linearGradient id="未命名的渐变_93" x1="141.6" y1="341.43" x2="141.6" y2="31.26" gradientUnits="userSpaceOnUse"><stop offset="0.07" stop-color="#00d0ff"/><stop offset="0.08" stop-color="#00c9ee"/><stop offset="0.09" stop-color="#00bcd0"/><stop offset="0.11" stop-color="#00b1b7"/><stop offset="0.13" stop-color="#00a9a4"/><stop offset="0.15" stop-color="#00a397"/><stop offset="0.18" stop-color="#00a08f"/><stop offset="0.24" stop-color="#009f8d"/><stop offset="0.37" stop-color="#784689"/><stop offset="0.43" stop-color="#a82288"/><stop offset="0.45" stop-color="#9d2288"/><stop offset="0.5" stop-color="#7f2389"/><stop offset="0.55" stop-color="#4e2589"/><stop offset="0.59" stop-color="#2f268a"/><stop offset="0.72" stop-color="#466b8b"/><stop offset="0.73" stop-color="#5c578a"/><stop offset="0.74" stop-color="#724489"/><stop offset="0.75" stop-color="#833589"/><stop offset="0.77" stop-color="#8e2b88"/><stop offset="0.8" stop-color="#952588"/><stop offset="0.86" stop-color="#972388"/><stop offset="0.87" stop-color="#9a2283"/><stop offset="0.92" stop-color="#bb164a"/><stop offset="0.95" stop-color="#d00f26"/><stop offset="0.97" stop-color="#d80c18"/></linearGradient><linearGradient id="未命名的渐变_93-2" x1="404.19" y1="461.1" x2="404.19" y2="133.84" xlink:href="#未命名的渐变_93"/><linearGradient id="未命名的渐变_93-3" x1="632.83" y1="342.41" x2="632.83" y2="128.46" xlink:href="#未命名的渐变_93"/><linearGradient id="未命名的渐变_93-4" x1="882.57" y1="338.01" x2="882.57" y2="0" xlink:href="#未命名的渐变_93"/><linearGradient id="未命名的渐变_93-5" x1="1110.48" y1="342.41" x2="1110.48" y2="128.46" xlink:href="#未命名的渐变_93"/><linearGradient id="未命名的渐变_93-6" x1="1264.44" y1="337.04" x2="1264.44" y2="19.54" xlink:href="#未命名的渐变_93"/></defs><title>Ryokai Logo</title><g id="图层_2" data-name="图层 2"><g id="图层_1-2" data-name="图层 1"><path class="cls-1" d="M0,330.2c43.16-2,47-10.26,47-48.85V85.48c0-38.59-3.88-44-44.62-46.89V31.26H116.87c48,0,100.38,14.66,100.38,77.18,0,41.52-21.82,65.94-59.16,83,7.76,15.14,28.12,46.4,43.16,66.91,23.27,28.82,57.22,70.83,81.95,76.69l-1.45,6.35c-44.13,0-67.41-2.44-140.64-123.09-12.12-17.58-26.67-18.07-67.89-18.07v81.08c0,38.59,3.88,46.89,45.59,48.85V337H0ZM102.8,190.5c28.13,0,46.07-3.91,59.17-14.66,16-12.69,25.21-32.23,25.21-60.08C187.18,63.5,153.72,41,103.29,41a251,251,0,0,0-25.7,1c-2.43,0-4.37,1.46-4.37,10.74V190.5Z"/><path class="cls-2" d="M286.11,133.84h88.74v6.84c-17,3.41-25.22,6.35-25.22,16.12A29.23,29.23,0,0,0,353,169L405.4,298.94c7.27-15.15,54.31-115.28,54.31-139.7,0-12.7-8.24-15.63-28.13-18.56v-6.84h90.69v6.84c-27.16,3.41-29.1,9.28-44.13,35.16-14.55,24.92-32,65-72.26,148.5-35.4,73.26-48.49,101.1-55.28,127-2.42,7.33-7.76,9.77-14.06,9.77-11.64,0-21.82-9.77-21.82-20,0-6.84,5.33-10.26,12.12-15.15,35.4-24.42,59.65-88.89,59.65-94.27,0-5.86-28.62-86.46-56.26-153.86-10.66-24.91-14.06-32.24-44.12-37.12Z"/><path class="cls-3" d="M740,231.53c0,73.75-60.13,110.88-106.68,110.88-64,0-107.66-48.85-107.66-102.09,0-79.13,66-111.86,106.69-111.86C693.45,128.46,740,174.87,740,231.53ZM556.21,224.2c0,62.52,32.49,107,83.9,107,40.73,0,70.31-26.37,70.31-92.31,0-47.38-28.61-98.67-82.44-98.67C583.37,140.19,556.21,175.36,556.21,224.2Z"/><path class="cls-4" d="M765.7,330.2c33.46-2,38.31-8.8,38.31-40.55V63.5c0-32.73-3.4-37.61-35.89-41V16.61C792.85,13.68,819,3.91,827.28,0V226.16c20.37-5.38,27.16-8.8,34-14.66,20.36-18.07,46.55-53.73,46.55-60.08,0-4.88-6.3-6.84-20.37-8.79V135.3l95.05-4.39v7.81c-35.88,5.86-49,9.77-110.56,80.11,10.66,13.68,65.46,73.27,81,85.48,21.82,19.05,32,27.35,46.55,25.89V337L949,338c-28.12-26.37-61.59-66.43-89.23-93.29-7.76-8.31-14.55-12.21-20.85-12.21a33.25,33.25,0,0,0-11.64,2.93v54.21c0,31.75,4.85,38.59,37.83,40.55V337H765.7Z"/><path class="cls-5" d="M1160.43,342.41c-1,0-10.67-3.91-15.52-8.79-5.82-6.35-7.76-12.22-10.67-23-18.91,14.65-40.73,31.75-58.67,31.75-33.46,0-56.26-25.4-56.26-55.69,0-22,15-37.61,48.5-47.86,24.73-7.33,55.28-19.05,66.43-25.89,0-23.94-.48-66.43-44.13-66.43-7.75.49-33.94,2.44-42.19,41.52-1,3.42-3.88,8.3-10.66,8.3s-14.55-6.84-14.55-16.61c0-7.32,5.82-13.19,13.58-17.58,12.12-8.31,44.61-28.33,68.37-33.71,23.76,0,53.83,15.63,53.83,58.62v105c0,20,7.27,27.84,17.46,27.84a40.81,40.81,0,0,0,21.33-6.35l4.37,8.3Zm-26.19-117.23c-10.18,5.86-40.73,17.58-51.4,22-21.82,8.3-34.92,17.58-34.92,35.66,0,25.4,20.37,38.58,37.83,38.58,16.49,0,38.31-12.21,48.49-24.91Z"/><path class="cls-6" d="M1216.68,330.2c31-2.44,35.88-8.8,35.88-37.12V191.48c0-31.27-3.39-33.71-31-38.59v-6.35c20.36-4.4,35.88-9.77,54.31-19.54V293.08c0,28.32,4.85,34.68,36.37,37.12V337h-95.53Zm66.43-290.15c0,10.26-8.24,19.54-18.42,19.54-9.7,0-18.43-9.28-18.43-19.54,0-11.72,8.73-20.51,18.43-20.51C1275.84,19.54,1283.11,29.8,1283.11,40.05Z"/></g></g></svg>